<?xml version="1.0" encoding="utf-8"?>
<!-- Generator: Adobe Illustrator 16.0.0, SVG Export Plug-In . SVG Version: 6.00 Build 0)  -->
<!DOCTYPE svg PUBLIC "-//W3C//DTD SVG 1.1//EN" "http://www.w3.org/Graphics/SVG/1.1/DTD/svg11.dtd">
<svg version="1.1" id="Layer_1" xmlns="http://www.w3.org/2000/svg" xmlns:xlink="http://www.w3.org/1999/xlink" x="0px" y="0px"
	 width="248.666px" height="52.333px" viewBox="0 0 248.666 52.333" enable-background="new 0 0 248.666 52.333"
	 xml:space="preserve">
<g>
	<defs>
		<path id="SVGID_1_" d="M35.604,40.38c3.111-0.038,6.062-0.493,8.674-1.371c0.657-0.222,1.284-0.466,1.879-0.732
			c-0.726,1.775-1.795,3.255-3.185,4.356c-2.746,2.022-5.985,3.408-9.502,3.938C34.35,45.05,35.06,42.904,35.604,40.38
			 M20.969,44.694c-0.065-0.054-0.135-0.104-0.213-0.142c-1.224-0.596-1.718-3.323-1.081-7.494c2.35,1.057,4.911,1.894,7.601,2.469
			c2.039,0.436,4.071,0.705,6.056,0.809c-0.974,4.234-2.222,6.456-3.049,6.456c-0.053,0-0.104,0.009-0.154,0.016
			C26.851,46.786,23.745,46.032,20.969,44.694 M9.612,31.21c-0.188-0.716-0.306-1.445-0.354-2.186
			c0.735,1.046,1.632,2.069,2.699,3.056c1.612,1.489,3.525,2.821,5.657,3.963c-0.435,2.436-0.558,4.642-0.283,6.422
			C13.656,39.685,10.907,35.752,9.612,31.21 M36.991,25.295c0-0.86-0.013-1.724-0.038-2.585c2.74-0.182,5.278-0.894,7.355-2.089
			c1.923,3.806,2.956,7.82,2.947,11.609c-0.002,1.098-0.096,2.142-0.271,3.127c-0.99,0.606-2.128,1.132-3.41,1.563
			c-2.274,0.765-4.837,1.183-7.553,1.253C36.676,34.258,36.991,29.713,36.991,25.295 M27.737,37.375
			c-2.728-0.585-5.306-1.451-7.64-2.548c0.766-3.448,2.193-7.627,4.456-12.266c0.328-0.672,0.664-1.332,1.006-1.98
			c1.582,0.71,3.303,1.273,5.108,1.659c1.371,0.294,2.742,0.454,4.085,0.5c0.024,0.826,0.036,1.678,0.036,2.556
			c0,5.187-0.415,9.492-1.013,12.855C31.805,38.066,29.777,37.809,27.737,37.375 M13.453,30.463
			c-1.871-1.729-3.157-3.56-3.812-5.378c0.519-2.038,1.524-4.082,3.003-6.041c1.404-1.858,3.148-3.531,5.151-4.969
			c0.577,1.044,1.387,2.062,2.416,3.028c0.979,0.917,2.121,1.748,3.386,2.476c-0.349,0.661-0.69,1.333-1.022,2.016
			c-1.954,4.004-3.55,8.301-4.486,12.199C16.35,32.814,14.786,31.696,13.453,30.463 M35.495,9.995c2.505,1.864,4.8,4.269,6.72,7.082
			c0.364,0.534,0.707,1.076,1.033,1.623c-1.76,1.017-3.985,1.625-6.386,1.796C36.659,16.695,36.209,13.038,35.495,9.995
			 M31.128,20.085c-1.594-0.34-3.11-0.829-4.504-1.442c2.055-3.595,4.303-6.721,6.52-9.045c0.693,2.726,1.274,6.391,1.519,10.935
			C33.496,20.486,32.308,20.338,31.128,20.085 M21.716,15.496c-0.912-0.853-1.604-1.742-2.07-2.635
			c2.064-1.242,4.348-2.254,6.781-2.985c1.447-0.435,2.912-0.758,4.373-0.981c-2.109,2.363-4.215,5.365-6.145,8.756
			C23.554,17.012,22.564,16.291,21.716,15.496 M16.979,8.477c-0.03,0.112-0.062,0.225-0.086,0.341
			c-0.223,1.039-0.197,2.103,0.065,3.159c-2.37,1.635-4.431,3.568-6.072,5.74c-0.5,0.661-0.948,1.336-1.353,2.016
			C10.752,15.222,13.408,11.298,16.979,8.477 M19.045,9.278c0.244-1.143,0.931-2.164,1.994-3.009
			c2.571-0.768,5.562-0.583,8.706,0.568c-1.323,0.23-2.646,0.535-3.951,0.929c-2.43,0.729-4.722,1.726-6.822,2.938
			C18.924,10.221,18.947,9.744,19.045,9.278 M36.915,6.375c0.756-0.489,1.452-0.825,2.034-0.964c1.105,0.443,2.2,1.008,3.238,1.723
			C40.521,6.719,38.749,6.465,36.915,6.375 M33.205,4.017c0.894,0.1,1.847,0.253,2.827,0.482c-0.614,0.329-1.25,0.742-1.896,1.236
			C33.847,5.085,33.537,4.511,33.205,4.017 M30.818,4.882c-0.996-0.382-1.981-0.677-2.952-0.889
			c0.778-0.087,1.567-0.136,2.368-0.137c0.375,0.005,0.835,0.455,1.317,1.327C31.308,5.08,31.063,4.976,30.818,4.882 M6.584,25.333
			c0,2.251,0.323,4.427,0.913,6.491c0.036,0.14,0.069,0.277,0.11,0.416c0.008,0.026,0.02,0.05,0.03,0.077
			c2.987,9.658,12.001,16.695,22.628,16.695c4.916,0,9.486-1.506,13.275-4.08c0.038-0.021,0.076-0.041,0.111-0.064
			c0.225-0.153,0.443-0.314,0.654-0.482c4.358-3.22,7.575-7.894,8.93-13.302c0.076-0.249,0.143-0.502,0.198-0.758
			c0.013-0.061,0.017-0.12,0.02-0.18c0.322-1.555,0.492-3.166,0.492-4.813c0-3.196-0.626-6.298-1.861-9.217
			c-0.237-0.561-0.883-0.822-1.443-0.585c-0.561,0.235-0.823,0.883-0.586,1.442c1.12,2.646,1.687,5.459,1.687,8.359
			c0,1.777-0.221,3.504-0.63,5.156c-0.325,1.043-0.897,2.008-1.687,2.883c0.019-0.374,0.032-0.752,0.033-1.137
			c0.009-4.226-1.16-8.688-3.327-12.883c1.589-1.364,2.602-3.05,2.95-4.936c0.111-0.598-0.285-1.172-0.883-1.282
			c-0.598-0.112-1.173,0.284-1.283,0.883c-0.23,1.247-0.877,2.39-1.891,3.363c-0.315-0.521-0.642-1.037-0.989-1.546
			c-1.933-2.834-4.23-5.286-6.744-7.242c3.318,0.218,6.385,1.022,8.855,2.402c0.387,0.221,0.902,0.214,1.264-0.088
			c0.468-0.389,0.53-1.085,0.14-1.553c-3.548-4.965-9.686-7.701-17.286-7.701C17.208,1.654,6.584,12.277,6.584,25.333"/>
	</defs>
	<use xlink:href="#SVGID_1_"  overflow="visible" fill="#FFFFFF"/>
	<clipPath id="SVGID_2_">
		<use xlink:href="#SVGID_1_"  overflow="visible"/>
	</clipPath>
	<rect x="6.584" y="1.654" clip-path="url(#SVGID_2_)" fill="#FFFFFF" width="47.361" height="47.359"/>
</g>
<g>
	<path fill="#FFFFFF" d="M63.359,44.646V33.734h2.151v10.912H63.359z"/>
	<path fill="#FFFFFF" d="M67.428,44.646V33.734h4.129c2.231,0,3.523,0.846,3.523,2.883c0,1.935-1.15,2.264-1.699,2.264v0.031
		c0.73,0,2.434,0.64,2.434,2.676c0,2.278-1.793,3.059-3.806,3.059H67.428z M71.311,38.289c1.167,0,1.558-0.579,1.558-1.42
		c0-0.875-0.578-1.389-1.857-1.389h-1.434v2.809H71.311z M71.542,42.9c1.077,0,1.889-0.339,1.889-1.542
		c0-1.122-0.828-1.558-1.934-1.558h-1.918v3.1H71.542z"/>
	<path fill="#FFFFFF" d="M86.224,44.616c0,0-0.403,0.107-1.122,0.107c-3.305,0-2.401-4.162-4.71-4.162h-1.151v4.085H77.09V33.734
		h3.834c2.68,0,4.117,0.983,4.117,3.433c0,1.605-1.045,2.457-1.889,2.771c1.122,0.919,1.186,3.04,2.619,3.04h0.452V44.616z
		 M80.674,38.942c1.295,0,2.245-0.594,2.245-1.715c0-1.089-0.763-1.747-2.071-1.747h-1.606v3.462H80.674z"/>
	<path fill="#FFFFFF" d="M87.173,44.646V33.734h3.197c2.866,0,5.424,1.546,5.424,5.645c0,3.882-2.308,5.268-4.959,5.268H87.173z
		 M90.818,42.9c1.67,0,2.837-1.216,2.837-3.554c0-2.417-1.025-3.866-3.318-3.866h-1.013v7.42H90.818z"/>
	<path fill="#FFFFFF" d="M102.184,42.155c-1.122,0-2.01-0.905-2.01-2.028c0-1.124,0.888-2.024,2.01-2.024s2.026,0.9,2.026,2.024
		C104.21,41.25,103.306,42.155,102.184,42.155z"/>
	<path fill="#FFFFFF" d="M109.086,44.646V33.734h2.151v10.912H109.086z"/>
	<path fill="#FFFFFF" d="M113.152,44.646V33.734h3.196c2.87,0,5.424,1.546,5.424,5.645c0,3.882-2.304,5.268-4.956,5.268H113.152z
		 M116.8,42.9c1.67,0,2.84-1.216,2.84-3.554c0-2.417-1.029-3.866-3.321-3.866h-1.013v7.42H116.8z"/>
	<path fill="#FFFFFF" d="M128.884,41.921h-3.87l-0.92,2.725h-2.244l4.008-10.912h2.195l4.008,10.912h-2.229L128.884,41.921z
		 M125.591,40.283h2.744l-1.388-3.963L125.591,40.283z"/>
</g>
<g>
	<path fill="#FFFFFF" d="M59.157,12.21h11.956v2.453h-4.391v12.302h-3.171V14.664h-4.394V12.21z"/>
	<path fill="#FFFFFF" d="M72.793,26.965V12.21h3.169v5.823h5.58V12.21h3.207v14.755h-3.167v-6.479h-5.62v6.479H72.793z"/>
	<path fill="#FFFFFF" d="M87.33,12.21h9.893v2.453h-6.723v3.454h6.295v2.452h-6.295v3.944h6.948v2.452H87.33V12.21z"/>
	<path fill="#FFFFFF" d="M112.964,12.21h3.574l2.576,11.098h0.04l2.373-11.098h3.025l-3.762,14.755h-3.514l-2.656-11.241h-0.041
		l-2.864,11.241h-3.594l-3.597-14.755h3.271l2.267,11.098h0.043L112.964,12.21z"/>
	<path fill="#FFFFFF" d="M125.626,19.59c0-4.353,2.206-7.687,7.09-7.687c4.882,0,7.092,3.333,7.092,7.687s-2.21,7.682-7.092,7.682
		C127.832,27.272,125.626,23.943,125.626,19.59z M128.996,19.59c0,2.531,0.594,5.393,3.721,5.393s3.72-2.862,3.72-5.393
		c0-2.536-0.593-5.399-3.72-5.399S128.996,17.054,128.996,19.59z"/>
	<path fill="#FFFFFF" d="M145.067,26.965h-3.17V12.21h6.272c2.536,0.02,5.131,0.837,5.131,3.843c0,1.92-1.246,3.189-3.065,3.576
		v0.042c2.433,0.265,2.433,1.756,2.699,3.801c0.145,0.941,0.265,2.678,0.858,3.494h-3.496c-0.265-1.307-0.408-2.635-0.551-3.965
		c-0.083-0.816-0.288-1.94-1.328-1.98h-3.351V26.965z M145.067,18.568h2.653c1.393-0.023,2.208-0.715,2.208-2.025
		c0-1.306-0.815-1.859-2.208-1.879h-2.653V18.568z"/>
	<path fill="#FFFFFF" d="M155.722,26.965V12.21h3.169v12.303h6.396v2.452H155.722z"/>
	<path fill="#FFFFFF" d="M167.006,12.21h5.029c4.596-0.039,7.458,2.247,7.458,7.379c0,5.128-2.862,7.416-7.458,7.375h-5.029V12.21z
		 M170.173,24.514h1.636c3.762,0.041,4.315-2.576,4.315-4.924c0-2.351-0.554-4.966-4.315-4.926h-1.636V24.514z"/>
	<path fill="#FFFFFF" d="M187.513,26.965V12.21h5.539c2.636-0.163,5.334,0.942,5.334,3.822c0,1.614-1.125,2.739-2.596,3.228v0.042
		c1.861,0.39,3.248,1.678,3.248,3.841c0,2.924-3.681,3.987-5.946,3.822H187.513z M193.153,24.514c1.491,0,2.513-0.266,2.513-1.962
		c0-1.696-1.021-1.962-2.513-1.962h-2.475v3.924H193.153z M193.153,18.139c1.328,0,2.063-0.553,2.063-1.738
		c0-1.187-0.735-1.737-2.063-1.737h-2.475v3.476H193.153z"/>
	<path fill="#FFFFFF" d="M200.026,26.965l5.336-14.755h3.76l5.128,14.755h-3.186l-1.063-3.126h-5.845l-1.105,3.126H200.026z
		 M209.205,21.387l-2.023-6.295h-0.043l-2.164,6.295H209.205z"/>
	<path fill="#FFFFFF" d="M224.703,26.965l-5.826-12.263l-0.04,0.042v12.22h-2.963V12.21h4.698l5.622,11.609l0.041-0.043V12.21h2.963
		v14.755H224.703z"/>
	<path fill="#FFFFFF" d="M234.967,18.588h0.042l4.904-6.378h3.698l-5.416,6.601l5.887,8.154h-3.944l-5.129-7.52h-0.042v7.52H231.8
		V12.21h3.167V18.588z"/>
</g>
</svg>
